<?xml version="1.0" encoding="utf-8"?>
<!-- Generator: Adobe Illustrator 26.1.0, SVG Export Plug-In . SVG Version: 6.00 Build 0)  -->
<svg version="1.1" id="Flat" xmlns="http://www.w3.org/2000/svg" xmlns:xlink="http://www.w3.org/1999/xlink" x="0px" y="0px"
	 viewBox="0 0 800 800" style="enable-background:new 0 0 800 800;" xml:space="preserve">
<style type="text/css">
	.st0{fill:none;stroke:#000000;stroke-width:57;stroke-miterlimit:10;}
</style>
<path d="M225,200h253.5v-50H225c-13.8,0-25,11.2-25,25S211.2,200,225,200z"/>
<path d="M650,528.2c-53.5-13.8-108,18.3-121.8,71.8c0,0,0,0,0,0H225c-55.2,0-100-44.8-100-100s44.8-100,100-100h300
	c57.4,0,107.4-39,121.3-94.7c-1.9,0.3-3.9,0.5-5.8,0.5h-47.1C581.3,332.7,554.5,350,525,350H225c-82.8,0-150,67.2-150,150
	s67.2,150,150,150h303.2c13.8,53.5,68.3,85.6,121.8,71.8c53.5-13.8,85.6-68.3,71.8-121.8C712.7,564.8,685.2,537.3,650,528.2z"/>
<line class="st0" x1="519.1" y1="166.7" x2="718.2" y2="166.7"/>
<line class="st0" x1="618.7" y1="266.2" x2="618.7" y2="67.1"/>
</svg>
