<svg id="Flat" xmlns="http://www.w3.org/2000/svg" viewBox="0 0 800 800"><defs><style>.cls-1{fill:none;stroke:#000;stroke-miterlimit:10;stroke-width:57px;}</style></defs><path d="M225,200H478.5V150H225a25,25,0,0,0,0,50Z"/><path d="M650,528.18A100,100,0,0,0,528.16,600H225a100,100,0,0,1,0-200H525a125,125,0,0,0,121.29-94.69,35.62,35.62,0,0,1-5.79.48H593.38A75,75,0,0,1,525,350H225a150,150,0,0,0,0,300H528.16A100,100,0,1,0,650,528.18Z"/><line class="cls-1" x1="519.11" y1="166.67" x2="718.22" y2="166.67"/><line class="cls-1" x1="618.67" y1="266.22" x2="618.67" y2="67.11"/></svg>