<svg width="20" id="Flat" xmlns="http://www.w3.org/2000/svg" viewBox="0 0 800 800"><path  fill="#FFFFFF" d="M225,200H478.5V150H225a25,25,0,0,0,0,50Z"/><path fill="#FFFFFF" d="M650,528.18A100,100,0,0,0,528.16,600v0H225a100,100,0,0,1,0-200H525a125,125,0,0,0,121.29-94.69,35.07,35.07,0,0,1-5.79.48H593.38A75,75,0,0,1,525,350H225a150,150,0,0,0,0,300H528.16A100,100,0,1,0,650,528.18Z"/><path fill="#FFFFFF" d="M500.34,215.46c0-43.82,30.16-68.74,65.13-68.74,19.3,0,33.37,8,42.61,17.28L590,186.11c-6.43-5.63-12.86-9.65-23.31-9.65-17.69,0-31,14.08-31,37.79,0,24.53,10.86,38.19,34.17,38.19,3.62,0,7.64-.8,10.05-2.41V231.94H560.65V203.8h49.84v62.31c-9.24,8.85-25.72,16.08-44.22,16.08C529.69,282.19,500.34,260.08,500.34,215.46Z"/><path fill="#FFFFFF" d="M635.82,149.13h37l19.7,53.47c2.41,7.23,4.42,15.27,6.83,22.91h.81c2.41-7.64,4.42-15.68,6.83-22.91l18.9-53.47h37V279.78H731.5V241.19c0-13.27,2.81-33.57,4.42-46.63h-.81l-10.85,31.35-16.08,43.22H689.69l-16.08-43.22-10.46-31.35h-.8c1.61,13.06,4.42,33.36,4.42,46.63v38.59H635.82Z"/></svg>