<?xml version="1.0" encoding="UTF-8"?><svg id="a" xmlns="http://www.w3.org/2000/svg" viewBox="0 0 800 800"><path d="M225,200h253.5v-50H225c-13.81,0-25,11.19-25,25s11.19,25,25,25Z"/><path d="M650,528.18c-53.47-13.82-108.02,18.33-121.84,71.8v.02H225c-55.23,0-100-44.77-100-100s44.77-100,100-100h300c57.37,0,107.38-39.03,121.29-94.69-1.91,.32-3.85,.48-5.79,.48h-47.12c-12.11,26.9-38.87,44.21-68.38,44.21H225c-82.84,0-150,67.16-150,150s67.16,150,150,150h303.16c13.81,53.47,68.35,85.63,121.82,71.83,53.47-13.81,85.63-68.35,71.83-121.82-9.09-35.22-36.59-62.72-71.81-71.82Z"/><line x1="537.71" y1="224.62" x2="699.62" y2="108.72" fill="none" stroke="#000" stroke-miterlimit="10" stroke-width="50"/><circle cx="618.66" cy="166.67" r="91.33" fill="none" stroke="#000" stroke-miterlimit="10" stroke-width="50"/></svg>