<svg id="Layer_1" data-name="Layer 1" xmlns="http://www.w3.org/2000/svg" xmlns:xlink="http://www.w3.org/1999/xlink" viewBox="0 0 800 800"><defs><style>.cls-1{fill:url(#linear-gradient);}.cls-2{fill:url(#linear-gradient-2);}.cls-3{fill:url(#linear-gradient-3);}.cls-4{fill:url(#linear-gradient-4);}.cls-5{fill:url(#linear-gradient-5);}.cls-6{fill:url(#linear-gradient-6);}.cls-7{fill:url(#linear-gradient-7);}.cls-8{fill:url(#linear-gradient-8);}.cls-9{fill:url(#linear-gradient-9);}</style><linearGradient id="linear-gradient" x1="212" y1="607.6" x2="628.72" y2="190.88" gradientUnits="userSpaceOnUse"><stop offset="0" stop-color="#007d7f"/><stop offset="1" stop-color="#9acbcc"/></linearGradient><linearGradient id="linear-gradient-2" x1="459.07" y1="636.47" x2="580.9" y2="514.64" xlink:href="#linear-gradient"/><linearGradient id="linear-gradient-3" x1="495.41" y1="461.5" x2="544.56" y2="412.34" xlink:href="#linear-gradient"/><linearGradient id="linear-gradient-4" x1="504.64" y1="609.17" x2="535.33" y2="578.47" xlink:href="#linear-gradient"/><linearGradient id="linear-gradient-5" x1="361.58" y1="346.13" x2="429.19" y2="278.51" xlink:href="#linear-gradient"/><linearGradient id="linear-gradient-6" x1="446.95" y1="283.83" x2="491.49" y2="239.28" xlink:href="#linear-gradient"/><linearGradient id="linear-gradient-7" x1="453.87" y1="336.9" x2="493.8" y2="296.97" xlink:href="#linear-gradient"/><linearGradient id="linear-gradient-8" x1="456.18" y1="385.35" x2="482.26" y2="359.27" xlink:href="#linear-gradient"/><linearGradient id="linear-gradient-9" x1="130.51" y1="669.49" x2="669.49" y2="130.51" xlink:href="#linear-gradient"/></defs><path class="cls-1" d="M520,132.92c-37.78,0-73.23,17.19-95.74,46.19-69.35,1.83-125.2,58.81-125.2,128.59a128.12,128.12,0,0,0,32,84.82,8.91,8.91,0,0,0-1.79,1.36l-24.56,24.56a31.73,31.73,0,0,0-37.9,5.28L169.9,520.63a31.72,31.72,0,1,0,44.87,44.86l96.91-96.91a31.74,31.74,0,0,0,5.27-37.9l24.56-24.56a8.55,8.55,0,0,0,1.36-1.79,128.07,128.07,0,0,0,84.82,32l1.76,0c3.67,16.55,7.33,31.58,10.91,44.7A27.14,27.14,0,0,0,466.52,501H573.45A27.16,27.16,0,0,0,599.62,481c20.11-73.83,39.77-196,39.77-233.31C639.39,184.41,585.83,132.92,520,132.92ZM192.33,557.48a14.42,14.42,0,0,1-10.19-24.62l7.73-7.72,20.39,20.39-7.73,7.73A14.32,14.32,0,0,1,192.33,557.48ZM299.44,456.34l-76.95,76.95L202.1,512.9l77-76.95a14.42,14.42,0,0,1,20.39,20.39ZM316.36,307.7A111.33,111.33,0,1,1,427.69,419,111.45,111.45,0,0,1,316.36,307.7ZM582.92,476.47a9.81,9.81,0,0,1-9.47,7.17H466.52a9.81,9.81,0,0,1-9.47-7.17c-3.33-12.24-6.75-26.19-10.19-41.56a128.39,128.39,0,0,0,70.93-35.49h48.34a8.65,8.65,0,1,0,0-17.3H532.57A128.87,128.87,0,0,0,548,353.27h27.38a8.65,8.65,0,1,0,0-17.3H553.19a128.51,128.51,0,0,0,3.14-28.27c0-.19,0-.38,0-.57h28.27a8.66,8.66,0,1,0,0-17.31H555.08A127.46,127.46,0,0,0,547.54,261h37.05a8.66,8.66,0,1,0,0-17.31H539.23a129.6,129.6,0,0,0-22.62-28.84h49.52a8.66,8.66,0,1,0,0-17.31H494a127.87,127.87,0,0,0-47.87-17.13A104.47,104.47,0,0,1,520,150.22c56.3,0,102.1,43.73,102.1,97.49C622.09,284,602.72,403.77,582.92,476.47Z"/><path class="cls-2" d="M582.29,520.56H457.69a11,11,0,0,0-11,11v62.3a73.26,73.26,0,0,0,146.52,0v-62.3A11,11,0,0,0,582.29,520.56Zm-6.35,73.26a56,56,0,1,1-111.91,0v-56H575.94Z"/><path class="cls-3" d="M556.9,428.27H483.07a8.65,8.65,0,1,0,0,17.3H556.9a8.65,8.65,0,1,0,0-17.3Z"/><path class="cls-4" d="M501.53,602.48h36.91a8.66,8.66,0,1,0,0-17.31H501.53a8.66,8.66,0,1,0,0,17.31Z"/><path class="cls-5" d="M390.09,241.74A8.65,8.65,0,1,0,373,244.45c10.69,67.24,27.64,138.39,27.81,139.1a8.66,8.66,0,0,0,8.41,6.64,8.2,8.2,0,0,0,2-.24,8.64,8.64,0,0,0,6.4-10.42C417.48,378.82,400.67,308.3,390.09,241.74Z"/><path class="cls-6" d="M510.18,261.56a8.66,8.66,0,0,0-8.65-8.66H436.92a8.66,8.66,0,0,0,0,17.31h64.61A8.66,8.66,0,0,0,510.18,261.56Z"/><path class="cls-7" d="M510.18,316.93a8.65,8.65,0,0,0-8.65-8.65H446.15a8.66,8.66,0,0,0,0,17.31h55.38A8.66,8.66,0,0,0,510.18,316.93Z"/><path class="cls-8" d="M483.07,363.66H455.38a8.65,8.65,0,0,0,0,17.3h27.69a8.65,8.65,0,1,0,0-17.3Z"/><path class="cls-9" d="M400,792.31a63.36,63.36,0,0,1-31.71-8.47L83.44,619.38a63.59,63.59,0,0,1-31.71-54.92V235.54a63.59,63.59,0,0,1,31.71-54.92L368.29,16.16a63.61,63.61,0,0,1,63.42,0L716.56,180.62a63.59,63.59,0,0,1,31.71,54.92V564.46a63.59,63.59,0,0,1-31.71,54.92L431.71,783.84A63.39,63.39,0,0,1,400,792.31ZM87.69,188l4.25,7.36a46.55,46.55,0,0,0-23.21,40.2V564.46a46.55,46.55,0,0,0,23.21,40.2L376.79,769.12a46.58,46.58,0,0,0,46.42,0L708.06,604.66a46.55,46.55,0,0,0,23.21-40.2V235.54a46.55,46.55,0,0,0-23.21-40.2L423.21,30.88a46.58,46.58,0,0,0-46.42,0L91.94,195.34Z"/></svg>