<?xml version="1.0" encoding="UTF-8"?><svg id="a" xmlns="http://www.w3.org/2000/svg" xmlns:xlink="http://www.w3.org/1999/xlink" viewBox="0 0 577.58 800"><defs><style>.c{fill:url(#b);}</style><linearGradient id="b" x1="95.03" y1="545.64" x2="482.55" y2="158.12" gradientTransform="matrix(1, 0, 0, 1, 0, 0)" gradientUnits="userSpaceOnUse"><stop offset="0" stop-color="#2b5876"/><stop offset="1" stop-color="#4e4376"/></linearGradient></defs><path d="M352.52,600.18c43.15,14.78,81.26,24.19,136.01,41.02-21.03,265.76-272.34,160.22-136.01-41.02Zm224.38-244.14c-2.83-79.8-16.89-184.47-128.84-168.07-52.48,13.7-91.26,71.33-109.5,170.78-10.02,54.68-4.19,131.42,7.62,177.43,10.79,32.42,7.12,30.43,18.71,36.58,44.88,10.11,89.31,21.3,134.55,32.71,45.96-32.46,83.71-204.77,77.45-249.43Zm-345.5-6.12c11.81-46.01,17.63-122.76,7.62-177.43C220.8,73.05,182.02,15.4,129.52,1.71,17.57-14.69,3.51,89.99,.68,169.79c-6.26,44.65,31.5,216.98,77.46,249.43,45.24-11.41,89.66-22.59,134.55-32.71,11.58-6.15,7.91-4.16,18.7-36.58Zm-142.36,105.02c21.03,265.76,272.33,160.22,136-41.02-43.15,14.78-81.26,24.19-136,41.02Z" fill="#b"/></svg>